<svg xmlns="http://www.w3.org/2000/svg" viewBox="0 0 192 192" width="192" height="192">
  <rect width="192" height="192" fill="#ffffff" rx="32" ry="32"/>
  <g transform="scale(0.25) translate(120, 120)">
    <!-- RE in teal color -->
    <path d="M80 50 L80 250 L120 250 L120 170 L180 170 C220 170 250 140 250 110 C250 80 220 50 180 50 Z M120 90 L170 90 C190 90 210 100 210 130 C210 150 190 130 170 130 L120 130 Z" fill="#26B6A5"/>
    
    <!-- Horizontal lines in teal -->
    <rect x="170" y="90" width="80" height="20" fill="#26B6A5"/>
    <rect x="170" y="130" width="80" height="20" fill="#26B6A5"/>
    
    <!-- PROPLAST in black -->
    <path d="M270 50 L270 250 L310 250 L310 170 L370 170 C410 170 440 140 440 110 C440 80 410 50 370 50 Z M310 90 L360 90 C380 90 400 100 400 130 C400 150 380 130 360 130 L310 130 Z" fill="#222"/>
    
    <path d="M450 50 L450 250 L490 250 L490 50 Z" fill="#222"/>
    
    <path d="M510 50 L510 250 L550 250 L550 170 C550 130 570 120 590 120 C610 120 630 130 630 170 L630 250 L670 250 L670 160 C670 100 640 45 590 45 C560 45 540 60 530 80 L530 50 Z" fill="#222"/>
    
    <path d="M690 50 L690 250 L730 250 L730 50 Z" fill="#222"/>
    
    <path d="M750 50 L750 250 L790 250 L790 150 L880 250 L930 250 L830 140 L920 50 L870 50 L790 130 L790 50 Z" fill="#222"/>
    
    <path d="M940 50 L940 90 L980 90 L980 250 L940 250 Z M940 130 L940 170 L980 170 Z" fill="#222"/>
  </g>
</svg>